<?xml version="1.0" encoding="UTF-8"?>
<svg width="256" height="256" version="1.1"
     xmlns="http://www.w3.org/2000/svg"
     xmlns:xlink="http://www.w3.org/1999/xlink">
  <defs>
    <linearGradient id="Gradient" x1="0" x2="0" y1="0" y2="1">
      <stop offset="0%" style="stop-color:#7FDFFF;stop-opacity:1" />
      <stop offset="100%" style="stop-color:#4EAECE;stop-opacity:1" />
    </linearGradient>
    <filter id="alpha-to-white">
      <feColorMatrix in="SourceGraphic" type="matrix"
                     values="0 0 0 0 0 0 0 0 0 0 0 0 0 0 0 0 0 0 0.8 0"/>
    </filter>
    <g id="child-svg"><svg xmlns="http://www.w3.org/2000/svg" height="48" viewBox="0 -960 960 960" width="48"><path d="M430.141-290Q468-290 494-316.5t26-63.5v-218h108v-72H484v216q-10-7-25.5-11.5T430-470q-37.8 0-63.9 26.5T340-380q0 37 26.141 63.5t64 26.5ZM140-160q-24 0-42-18t-18-42v-520q0-24 18-42t42-18h680q24 0 42 18t18 42v520q0 24-18 42t-42 18H140Zm0-60h680v-520H140v520Zm0 0v-520 520Z" /></svg></g>
  </defs>
  <rect
      width="256"
      height="256"
      fill="url(#Gradient)"
      ry="0"
      x="0"
      y="0" />
  <use xlink:href="#child-svg" filter="url(#alpha-to-white)"
       transform="matrix(2.6666666666666665,0,0,2.6666666666666665,64,64)" />
</svg>
